#
# v -0.330000 1.000000 -0.10000
# v -0.330000 -1.000000 -0.10000
# v 0.330000 -1.000000 -0.1000
# v 0.330000 1.000000 -0.1000
#
# v -0.330000 1.000000 0.10000
# v -0.330000 -1.000000 0.10000
# v 0.330000 -1.000000 0.1000
# v 0.330000 1.000000 0.1000
#
# vt 0.350000 0.950000
# vt 0.350000 0.050000
# vt 0.650000 0.950000
# vt 0.650000 0.05000
#
# vt 0.000000 0.050000
# vt 0.000000 0.950000
#
# f 3/4/ 2/2/ 1/1/
# f 3/4/ 1/1/ 4/3/
#
# f 7/4/ 6/2/ 5/1/
# f 7/4/ 5/1/ 8/3/

v 0.330000 -1.000000 -0.050000
v 0.330000 -1.000000 0.050000
v -0.330000 -1.000000 0.050000
v -0.330000 -1.000000 -0.050000
v 0.330000 1.000000 -0.050000
v 0.330000 1.000000 0.050000
v -0.330000 1.000000 0.050000
v -0.330000 1.000000 -0.050000
v 0.330000 -1.000000 -0.050000
v 0.330000 -1.000000 -0.050000
v 0.330000 -1.000000 0.050000
v 0.330000 -1.000000 0.050000
v -0.330000 -1.000000 -0.050000
v -0.330000 -1.000000 -0.050000
v 0.330000 1.000000 -0.050000
v 0.330000 1.000000 -0.050000
v -0.330000 -1.000000 0.050000
v -0.330000 -1.000000 0.050000
v 0.330000 1.000000 0.050000
v 0.330000 1.000000 0.050000
v -0.330000 1.000000 0.050000
v -0.330000 1.000000 0.050000
v -0.330000 1.000000 -0.050000
v -0.330000 1.000000 -0.050000
# vt 0.500000 1.000000
# vt 0.500000 0.500000
# vt 1.000000 0.500000
# vt 0.000000 0.500000
# vt 0.000000 0.000000
# vt 0.500000 0.000000
# vt 0.000000 1.000000
# vt 0.000200 1.000000
# vt 0.500000 1.000000
# vt 1.000000 1.000000
# vt 0.250000 0.500000
# vt 0.250000 0.250000
# vt 0.500000 0.250000
# vt 0.000000 0.250000
# vt 0.000000 0.000000
# vt 0.250000 0.000000
# vt 0.000000 0.500000
# vt 0.000200 0.500000
# vt 0.250000 0.500000
# vt 0.500000 0.500000
vt 0.300000 0.950000
vt 0.300000 0.050000
vt 0.700000 0.950000
vt 0.700000 0.05000

vt 0.450000 0.150000
vt 0.550000 0.150000
vt 0.450000 0.100000
vt 0.550000 0.100000

vn 0.000000 -1.000000 0.000000
vn 0.000000 1.000000 0.000000
vn 1.000000 0.000000 0.000000
vn 0.000000 0.000000 1.000000
vn -1.000000 0.000000 0.000000
vn 0.000000 0.000000 -1.000000
# Bottom
f 11/5/1 17/6/1 13/7/1
f 9/8/1 11/5/1 13/7/1
# Top
f 24/5/2 22/6/2 20/7/2
f 16/8/2 24/5/2 20/7/2
#Right
f 15/5/3 19/6/3 12/7/3
f 10/8/3 15/5/3 12/7/3
#Face
f 6/1/4 21/3/4 18/4/4
f 2/2/4 6/1/4 18/4/4
# Left
f 3/5/5 7/6/5 23/7/5
f 14/8/5 3/5/5 23/7/5
# Back
f 1/4/6 4/2/6 8/1/6
f 5/3/6 1/4/6 8/1/6

